<?xml version="1.0" standalone="no"?><!DOCTYPE svg PUBLIC "-//W3C//DTD SVG 1.1//EN" "http://www.w3.org/Graphics/SVG/1.1/DTD/svg11.dtd"><svg t="1768237864199" class="icon" viewBox="0 0 1024 1024" version="1.1" xmlns="http://www.w3.org/2000/svg" p-id="8694" xmlns:xlink="http://www.w3.org/1999/xlink" width="200" height="200"><path d="M393.216 87.552s116.224 172.032 111.104 465.92c137.216-9.216 198.656-5.12 333.312 0-14.336-97.792-67.584-433.664-444.416-465.92z" fill="#13227a" p-id="8695"></path><path d="M504.32 561.152c-2.048 0-4.096-1.024-5.12-2.048-1.536-1.536-2.56-3.584-2.56-5.632C501.76 265.216 388.096 93.696 387.072 92.16c-1.536-2.56-1.536-5.632-0.512-8.192 1.536-2.56 4.096-4.096 7.168-3.584 162.816 13.824 285.184 84.992 364.032 211.968 64.512 103.936 81.408 217.6 87.552 260.608 0.512 4.096-2.56 8.192-6.656 8.704h-1.536l-35.328-1.536c-111.616-4.608-173.056-6.656-297.472 1.536 0.512-0.512 0.512-0.512 0-0.512z m148.48-20.48c47.104 0 91.648 1.536 150.016 4.096l25.6 1.024c-42.496-271.872-183.808-422.912-420.864-449.024 26.112 45.568 107.008 206.336 104.448 448.512 56.32-3.584 99.328-4.608 140.8-4.608zM354.304 130.048S448.512 343.04 440.32 561.664c-58.88 7.68-220.672 32.256-309.76 78.336 34.304-69.12 226.304-426.496 223.744-509.952z" fill="#13227a" p-id="8696"></path><path d="M130.56 647.168c-2.048 0-4.096-1.024-5.632-2.048-2.56-2.56-3.072-6.144-1.536-8.704 5.12-10.752 14.336-28.16 26.112-50.688 59.392-115.712 199.168-386.56 197.12-455.168 0-3.584 2.56-7.168 6.144-7.68 3.584-1.024 7.168 1.024 8.704 4.608 1.024 2.048 94.72 217.088 87.04 434.688 0 3.584-3.072 6.656-6.656 7.168-79.36 10.752-225.28 34.816-307.2 77.312-1.536 0.512-3.072 0.512-4.096 0.512z m227.328-486.912c-22.528 98.304-136.704 320-194.56 432.64-6.144 11.776-11.264 22.016-15.36 30.208 83.456-36.352 209.92-57.856 285.184-68.096 4.096-167.424-51.2-331.776-75.264-394.752zM36.352 722.432l78.336 116.224L254.976 773.12l47.104 53.76 155.648-59.904 37.888 54.784 151.552-54.784 32.768 54.784s28.672-22.528 150.528-33.792c32.768-48.128 105.984-154.112 151.552-185.856-46.08 0-579.584-53.76-945.664 120.32z" fill="#13227a" p-id="8697"></path><path d="M115.2 846.336c-2.56 0-5.12-1.024-6.144-3.584L30.208 726.528c-1.024-2.048-1.536-4.096-1.024-6.144 0.512-2.048 2.048-4.096 4.096-5.12 216.064-102.4 523.776-143.872 914.944-123.392 16.384 1.024 28.672 1.536 33.792 1.536 3.584 0 6.656 2.048 7.168 5.12 1.024 3.072 0 6.656-3.072 8.704-46.08 32.256-123.904 146.432-149.504 184.32-1.536 2.048-3.584 3.072-5.632 3.072-116.224 10.752-145.92 32.256-146.432 32.768-1.536 1.536-4.096 2.048-6.144 1.536s-4.096-1.536-5.12-3.584l-29.696-49.152-145.92 52.224c-3.072 1.024-7.168 0-8.704-3.072l-34.304-49.664-150.016 57.856c-3.072 1.024-6.656 0.512-8.704-2.048l-43.52-49.152L117.76 845.312c-0.512 0.512-1.536 1.024-2.56 1.024zM48.128 725.504L117.76 828.928l134.144-62.464c3.072-1.536 6.656-0.512 9.216 2.048l43.52 49.664 150.528-58.368c3.072-1.536 7.168 0 9.216 2.56l34.816 49.664 145.92-52.736c3.584-1.024 7.168 0 9.216 3.072l28.672 48.128c14.848-7.168 54.272-22.528 143.36-30.72 39.424-57.856 93.696-134.144 135.168-172.032-4.096 0-8.704-0.512-13.824-0.512-384-20.48-686.592 19.456-899.584 118.272z" fill="#13227a" p-id="8698"></path><path d="M646.656 948.736l-33.792-50.176c-2.56-4.096-7.68-5.632-12.288-3.584l-122.88 50.688c-4.096 1.536-9.216 0.512-11.776-3.072l-34.816-45.056c-2.56-3.584-7.68-5.12-11.776-3.072l-128.512 51.2c-4.096 1.536-8.192 0.512-11.264-2.56l-45.056-46.08c-3.072-3.072-7.68-4.096-11.776-2.048l-92.16 44.032c-5.12 2.56-11.264 0-13.824-5.12l-17.408-36.864c-2.56-5.12-0.512-11.264 4.608-13.824l132.096-62.464c4.096-2.048 8.704-1.024 11.776 2.048l47.104 48.128c3.072 3.072 7.168 4.096 11.264 2.56l133.632-53.248c4.096-1.536 9.216-0.512 11.776 3.072l34.304 45.056c3.072 3.584 7.68 5.12 11.776 3.072l125.952-51.712c4.608-2.048 9.728-0.512 12.288 3.584l29.184 43.52c3.072 4.096 8.192 5.632 12.8 3.584 31.232-14.848 80.384-33.792 137.728-36.864l11.264-0.512c3.584 0 7.168 1.536 9.216 4.608l6.656 9.216c3.584 5.12 6.656 9.216 9.216 13.824 2.56 4.096 8.192 5.632 12.8 3.584l72.704-33.28c5.12-2.56 11.264 0 13.312 5.12l16.896 37.376c2.56 5.12 0 11.264-5.12 13.312L842.24 942.08c-4.608 2.048-10.24 0.512-12.8-3.584l-9.728-14.848s-5.12-8.192-14.336-21.504c-2.048-3.072-6.144-5.12-9.728-4.608-67.584 9.728-118.272 43.008-118.784 43.008l-16.896 11.264c-4.096 2.56-10.24 1.536-13.312-3.072z" fill="#13227a" p-id="8699"></path><path d="M654.848 960.512c-5.632 0-11.264-2.56-14.848-7.68l-33.792-50.176c-0.512-1.024-2.048-1.536-3.072-1.024l-122.88 50.688c-7.68 3.072-15.872 0.512-20.992-5.632l-34.816-45.056c-0.512-1.024-2.048-1.024-3.072-1.024l-128.512 51.2c-6.656 2.56-14.336 1.024-19.456-4.096l-45.056-46.08c-0.512-1.024-2.048-1.024-3.072-0.512l-92.16 43.52c-4.096 2.048-9.216 2.56-13.824 0.512-4.608-1.536-8.192-4.608-10.24-9.216l-17.408-36.864c-4.096-8.704-0.512-19.456 8.704-24.064l132.096-62.464c7.168-3.072 15.36-1.536 20.48 3.584l47.104 48.128c0.512 1.024 1.536 1.024 2.56 0.512l133.632-53.248c7.68-3.072 15.872-0.512 20.992 5.632l34.304 45.056c0.512 1.024 2.048 1.024 3.072 1.024l125.952-51.712c7.68-3.072 16.896-0.512 21.504 6.656l29.184 43.52c0.512 1.024 2.048 1.536 3.072 1.024 31.744-15.36 82.432-34.304 140.8-37.376l11.264-0.512c6.144-0.512 12.288 2.56 15.872 7.68l6.656 9.216c3.584 4.608 6.656 9.216 9.216 13.312 0.512 1.024 2.048 1.536 3.072 1.024l72.704-33.28c4.608-2.048 9.216-2.048 13.824-0.512 4.608 1.536 8.192 5.12 10.24 9.216l16.896 37.376c2.048 4.608 2.048 9.216 0.512 13.824-1.536 4.608-5.12 8.192-9.216 10.24l-120.32 55.296c-8.192 3.584-17.92 1.024-22.528-6.656l-9.728-14.848c-0.512-0.512-5.632-8.192-14.336-21.504-0.512-1.024-1.536-1.024-2.56-1.024-65.024 9.728-115.2 41.984-115.712 41.984l-16.896 11.264c-2.048 2.56-5.632 3.072-9.216 3.072z m-50.176-74.24c5.632 0 11.776 3.072 14.848 7.68l33.792 50.176c1.024 1.024 2.56 1.536 3.584 0.512l16.896-11.264c2.048-1.536 53.248-34.304 121.856-44.544 6.656-1.024 13.312 2.048 17.408 7.68 8.704 12.8 13.824 20.992 14.336 21.504l9.728 14.848c0.512 1.024 2.048 1.536 3.072 1.024l120.32-55.296c1.024-0.512 1.024-1.024 1.536-1.536 0-0.512 0.512-1.024 0-2.048l-16.896-37.376-1.536-1.536h-2.048l-72.704 33.28c-8.192 3.584-17.408 1.024-22.528-6.144-2.56-4.096-6.144-8.704-9.216-13.312l-6.656-9.216c-0.512-0.512-1.536-1.024-2.048-1.024l-11.264 0.512c-55.808 3.072-104.448 20.992-135.168 35.84-8.192 4.096-17.92 1.024-22.528-6.144l-29.184-43.52c-0.512-1.024-2.048-1.536-3.072-1.024l-125.952 51.712c-7.68 3.072-16.384 0.512-20.992-5.632l-34.304-45.056c-0.512-1.024-2.048-1.024-3.072-1.024l-133.632 53.248c-6.656 2.56-14.336 1.024-19.456-4.096l-47.104-48.128c-0.512-1.024-2.048-1.024-3.072-0.512L107.52 889.344c-1.024 0.512-1.024 1.024-1.536 1.536 0 0.512-0.512 1.024 0 2.048l17.408 36.864c0.512 1.024 1.024 1.024 1.536 1.536s1.024 0.512 2.048 0l92.16-44.032c6.656-3.072 15.36-1.536 20.48 3.584l45.056 46.08c0.512 0.512 1.536 1.024 2.56 0.512l128.512-51.2c7.68-3.072 15.872-0.512 20.992 5.632l34.816 45.056c0.512 1.024 2.048 1.024 3.072 1.024l122.88-50.688c2.56-0.512 4.608-1.024 7.168-1.024zM602.112 217.6s103.936 51.2 129.024 199.68" fill="#13227a" p-id="8700"></path><path d="M731.136 424.96c-3.584 0-6.656-2.56-7.68-6.656-24.576-142.848-123.904-193.536-124.928-194.048-3.584-2.048-5.12-6.656-3.584-10.24 2.048-3.584 6.656-5.632 10.24-3.584 4.608 2.048 107.52 54.784 133.632 205.312 0.512 4.096-2.048 8.192-6.144 8.704-0.512 0.512-1.024 0.512-1.536 0.512z" fill="#13227a" p-id="8701"></path></svg>